<svg width="50.000000" height="50.000000" viewBox="0 0 50 50" fill="none" xmlns="http://www.w3.org/2000/svg" xmlns:xlink="http://www.w3.org/1999/xlink">
	<desc>
			Created with Pixso.
	</desc>
	<defs/>
	<rect id="instagramm-icon" width="50.000000" height="50.000000" fill="#FFFFFF" fill-opacity="0"/>
	<path id="path" d="M25 4.5C31.67 4.5 32.46 4.52 35.1 4.65C37.82 4.77 40.63 5.39 42.61 7.38C44.62 9.38 45.22 12.16 45.34 14.89C45.47 17.53 45.49 18.32 45.49 25C45.49 31.67 45.47 32.46 45.34 35.1C45.22 37.81 44.59 40.64 42.61 42.61C40.61 44.62 37.83 45.22 35.1 45.34C32.46 45.47 31.67 45.49 25 45.49C18.32 45.49 17.53 45.47 14.89 45.34C12.2 45.22 9.33 44.57 7.38 42.61C5.38 40.62 4.77 37.81 4.65 35.1C4.52 32.46 4.5 31.67 4.5 25C4.5 18.32 4.52 17.53 4.65 14.89C4.77 12.19 5.41 9.34 7.38 7.38C9.38 5.38 12.17 4.77 14.89 4.65C17.53 4.52 18.32 4.5 25 4.5ZM25 0C18.2 0 17.35 0.02 14.69 0.15C10.82 0.32 6.98 1.4 4.19 4.19C1.39 7 0.32 10.82 0.15 14.69C0.02 17.35 0 18.2 0 25C0 31.79 0.02 32.64 0.15 35.3C0.32 39.16 1.4 43.01 4.19 45.8C6.99 48.6 10.83 49.67 14.69 49.84C17.35 49.97 18.2 50 25 50C31.79 50 32.64 49.97 35.3 49.84C39.17 49.67 43.01 48.59 45.8 45.8C48.61 42.99 49.67 39.17 49.84 35.3C49.97 32.64 50 31.79 50 25C50 18.2 49.97 17.35 49.84 14.69C49.67 10.82 48.59 6.98 45.8 4.19C43 1.39 39.16 0.32 35.3 0.15C32.64 0.02 31.79 0 25 0Z" fill="#FF0000" fill-opacity="1.000000" fill-rule="nonzero"/>
	<path id="path" d="M25 12.16C17.91 12.16 12.16 17.91 12.16 25C12.16 32.08 17.91 37.83 25 37.83C32.08 37.83 37.83 32.08 37.83 25C37.83 17.91 32.08 12.16 25 12.16ZM25 33.33C20.39 33.33 16.66 29.6 16.66 25C16.66 20.39 20.39 16.66 25 16.66C29.6 16.66 33.33 20.39 33.33 25C33.33 29.6 29.6 33.33 25 33.33Z" fill="#FF0000" fill-opacity="1.000000" fill-rule="nonzero"/>
	<ellipse id="circle" cx="38.345703" cy="11.654297" rx="3.000001" ry="3.000000" fill="#FF0000" fill-opacity="1.000000"/>
</svg>
